<svg width="583" height="286" viewBox="0 0 583 286" fill="none" xmlns="http://www.w3.org/2000/svg">
<rect opacity="0.4" x="12" y="11" width="560" height="220" stroke="black" stroke-width="3"/>
<path opacity="0.4" d="M292 240V266" stroke="black" stroke-width="3"/>
<path d="M127.626 159C141.912 159 154.524 151.886 161.22 140.659L147.939 132.99C144.256 139.77 136.555 143.994 127.626 143.994C120.036 143.994 113.898 141.66 109.21 136.88C104.634 132.1 102.291 125.987 102.291 118.539C102.291 110.981 104.634 104.867 109.21 100.088C113.898 95.308 120.036 92.9737 127.626 92.9737C136.555 92.9737 144.033 97.0864 147.939 104.089L161.22 96.4195C154.524 85.1928 141.8 78.0789 127.626 78.0789C115.907 78.0789 106.197 81.9693 98.4958 89.7502C90.7947 97.4199 87 107.09 87 118.539C87 129.988 90.7947 139.548 98.4958 147.329C106.197 155.11 115.907 159 127.626 159Z" fill="black"/>
<path d="M185.282 101.866H170.884V157.444H185.282V130.878C185.282 125.542 186.956 121.763 190.416 119.429C193.876 117.094 197.894 116.205 202.247 116.761V100.755C194.657 100.755 187.96 104.312 185.282 111.425V101.866Z" fill="black"/>
<path d="M251.008 108.424C246.655 102.978 240.628 100.31 232.815 100.31C225.337 100.31 218.976 103.2 213.618 108.869C208.373 114.538 205.694 121.429 205.694 129.655C205.694 137.88 208.373 144.883 213.618 150.552C218.976 156.221 225.337 159 232.815 159C240.628 159 246.655 156.332 251.008 150.886V157.444H265.405V101.866H251.008V108.424ZM224.445 140.993C221.543 137.992 220.092 134.212 220.092 129.655C220.092 125.098 221.543 121.318 224.445 118.428C227.346 115.427 231.03 113.982 235.494 113.982C239.958 113.982 243.641 115.427 246.543 118.428C249.557 121.318 251.008 125.098 251.008 129.655C251.008 134.212 249.557 137.992 246.543 140.993C243.641 143.883 239.958 145.328 235.494 145.328C231.03 145.328 227.346 143.883 224.445 140.993Z" fill="black"/>
<path d="M308.484 78.0789C291.073 77.0785 282.256 85.6374 282.256 101.31V101.866H274.22V115.649H282.256V157.444H296.653V115.649H308.484V101.866H296.653V101.31C296.653 94.4187 300.56 91.3064 308.484 91.8621V78.0789Z" fill="black"/>
<path d="M348.747 101.866H336.135V86.3044L321.738 90.6394V101.866H312.028V115.649H321.738V138.77C321.738 153.998 328.992 159.667 348.747 157.444V144.439C340.488 144.883 336.135 144.772 336.135 138.77V115.649H348.747V101.866Z" fill="black"/>
<path d="M396.602 131.878C396.602 141.104 391.802 145.661 384.324 145.661C377.628 145.661 373.275 141.66 373.275 134.212V101.866H358.877V135.991C358.877 143.216 360.886 148.774 364.793 152.886C368.811 156.999 373.833 159 379.972 159C387.561 159 393.142 156.443 396.602 151.219V157.444H410.999V101.866H396.602V131.878Z" fill="black"/>
<path d="M485.906 100.31C478.54 100.31 472.959 102.978 469.276 108.313C466.039 102.978 460.905 100.31 454.097 100.31C447.066 100.31 441.932 102.755 438.583 107.757V101.866H424.186V157.444H438.583V126.209C438.583 118.095 442.713 113.649 449.075 113.649C454.99 113.649 458.45 117.539 458.45 124.208V157.444H472.847V126.209C472.847 118.095 476.642 113.649 483.227 113.649C489.142 113.649 492.602 117.539 492.602 124.208V157.444H507V123.208C507 109.314 498.741 100.31 485.906 100.31Z" fill="black"/>
<rect x="2" y="2" width="18" height="18" rx="6" fill="white" stroke="#FE3268" stroke-width="3"/>
<rect x="2" y="222" width="18" height="18" rx="6" fill="white" stroke="#FE3268" stroke-width="3"/>
<rect x="2" y="112" width="18" height="18" rx="6" fill="white" stroke="#FE3268" stroke-width="3"/>
<rect x="563" y="112" width="18" height="18" rx="6" fill="white" stroke="#FE3268" stroke-width="3"/>
<rect x="283" y="2" width="18" height="18" rx="6" fill="white" stroke="#FE3268" stroke-width="3"/>
<rect x="283" y="222" width="18" height="18" rx="6" fill="white" stroke="#FE3268" stroke-width="3"/>
<rect x="283" y="266" width="18" height="18" rx="6" fill="white" stroke="#FE3268" stroke-width="3"/>
<rect x="563" y="2" width="18" height="18" rx="6" fill="white" stroke="#FE3268" stroke-width="3"/>
</svg>
