<svg width="290" height="142" viewBox="0 0 290 142" fill="none" xmlns="http://www.w3.org/2000/svg">
<rect opacity="0.4" x="5.97409" y="5.46802" width="278.549" height="109.22" stroke="black" stroke-width="1.48936"/>
<path opacity="0.4" d="M145.249 119.156V132.064" stroke="black" stroke-width="1.48936"/>
<path d="M63.4875 78.9432C70.5935 78.9432 76.8668 75.4115 80.1977 69.8379L73.5913 66.0303C71.7593 69.3965 67.9287 71.4935 63.4875 71.4935C59.7124 71.4935 56.6591 70.3346 54.3274 67.9617C52.0513 65.5888 50.8854 62.5537 50.8854 58.8564C50.8854 55.104 52.0513 52.0689 54.3274 49.696C56.6591 47.3231 59.7124 46.1642 63.4875 46.1642C67.9287 46.1642 71.6483 48.206 73.5913 51.6826L80.1977 47.8749C76.8668 42.3014 70.538 38.7696 63.4875 38.7696C57.6583 38.7696 52.8285 40.7011 48.9979 44.5639C45.1673 48.3716 43.2798 53.1725 43.2798 58.8564C43.2798 64.5403 45.1673 69.2861 48.9979 73.149C52.8285 77.0118 57.6583 78.9432 63.4875 78.9432Z" fill="black"/>
<path d="M92.1661 50.5789H85.0046V78.1707H92.1661V64.9818C92.1661 62.333 92.9988 60.4568 94.7198 59.2979C96.4408 58.139 98.4394 57.6976 100.604 57.9735V50.0271C96.8294 50.0271 93.4985 51.7929 92.1661 55.3247V50.5789Z" fill="black"/>
<path d="M124.859 53.8347C122.694 51.1307 119.696 49.8063 115.81 49.8063C112.09 49.8063 108.926 51.2411 106.261 54.0555C103.652 56.8698 102.319 60.2912 102.319 64.3748C102.319 68.4584 103.652 71.9349 106.261 74.7493C108.926 77.5636 112.09 78.9432 115.81 78.9432C119.696 78.9432 122.694 77.6188 124.859 74.9148V78.1707H132.02V50.5789H124.859V53.8347ZM111.646 70.0035C110.203 68.5135 109.481 66.6373 109.481 64.3748C109.481 62.1123 110.203 60.236 111.646 58.8012C113.089 57.3113 114.921 56.5939 117.142 56.5939C119.363 56.5939 121.195 57.3113 122.638 58.8012C124.137 60.236 124.859 62.1123 124.859 64.3748C124.859 66.6373 124.137 68.5135 122.638 70.0035C121.195 71.4383 119.363 72.1557 117.142 72.1557C114.921 72.1557 113.089 71.4383 111.646 70.0035Z" fill="black"/>
<path d="M153.448 38.7696C144.788 38.273 140.402 42.5221 140.402 50.303V50.5789H136.405V57.4217H140.402V78.1707H147.563V57.4217H153.448V50.5789H147.563V50.303C147.563 46.8816 149.506 45.3365 153.448 45.6124V38.7696Z" fill="black"/>
<path d="M173.475 50.5789H167.202V42.8532L160.04 45.0054V50.5789H155.211V57.4217H160.04V68.8998C160.04 76.46 163.649 79.2743 173.475 78.1707V71.7142C169.367 71.9349 167.202 71.8797 167.202 68.8998V57.4217H173.475V50.5789Z" fill="black"/>
<path d="M197.278 65.4785C197.278 70.0587 194.891 72.3212 191.172 72.3212C187.841 72.3212 185.676 70.3346 185.676 66.6373V50.5789H178.514V67.5202C178.514 71.1072 179.513 73.8663 181.457 75.9081C183.455 77.9499 185.953 78.9432 189.007 78.9432C192.782 78.9432 195.557 77.674 197.278 75.0804V78.1707H204.44V50.5789H197.278V65.4785Z" fill="black"/>
<path d="M241.699 49.8063C238.035 49.8063 235.259 51.1307 233.427 53.7795C231.817 51.1307 229.264 49.8063 225.877 49.8063C222.38 49.8063 219.826 51.0204 218.161 53.5036V50.5789H210.999V78.1707H218.161V62.6641C218.161 58.6357 220.215 56.4284 223.379 56.4284C226.321 56.4284 228.042 58.3598 228.042 61.6708V78.1707H235.204V62.6641C235.204 58.6357 237.091 56.4284 240.367 56.4284C243.309 56.4284 245.03 58.3598 245.03 61.6708V78.1707H252.192V61.1741C252.192 54.2762 248.084 49.8063 241.699 49.8063Z" fill="black"/>
<rect x="1" y="1" width="8.95337" height="8.93617" rx="2.97872" fill="white" stroke="#FE3268" stroke-width="1.48936"/>
<rect x="1" y="110.22" width="8.95337" height="8.93617" rx="2.97872" fill="white" stroke="#FE3268" stroke-width="1.48936"/>
<rect x="1" y="55.6099" width="8.95337" height="8.93617" rx="2.97872" fill="white" stroke="#FE3268" stroke-width="1.48936"/>
<rect x="280.047" y="55.6099" width="8.95337" height="8.93617" rx="2.97872" fill="white" stroke="#FE3268" stroke-width="1.48936"/>
<rect x="140.772" y="1" width="8.95337" height="8.93617" rx="2.97872" fill="white" stroke="#FE3268" stroke-width="1.48936"/>
<rect x="140.772" y="110.22" width="8.95337" height="8.93617" rx="2.97872" fill="white" stroke="#FE3268" stroke-width="1.48936"/>
<rect x="140.772" y="132.064" width="8.95337" height="8.93617" rx="2.97872" fill="white" stroke="#FE3268" stroke-width="1.48936"/>
<rect x="280.047" y="1" width="8.95337" height="8.93617" rx="2.97872" fill="white" stroke="#FE3268" stroke-width="1.48936"/>
</svg>
